<svg version="1.1" id="Layer_1" xmlns="http://www.w3.org/2000/svg" xmlns:xlink="http://www.w3.org/1999/xlink" x="0px" y="0px"
	 width="100%" viewBox="0 0 500 500" enable-background="new 0 0 500 500" xml:space="preserve">
<path fill="#2B2B2B" opacity="1.000000" stroke="none" 
	d="
M249.000000,501.000000 
	C166.000015,501.000000 83.500038,501.000000 1.000044,501.000000 
	C1.000030,334.333405 1.000030,167.666779 1.000015,1.000134 
	C167.666565,1.000089 334.333130,1.000089 500.999756,1.000045 
	C500.999847,167.666519 500.999847,334.333038 500.999939,500.999786 
	C417.166656,501.000000 333.333344,501.000000 249.000000,501.000000 
M381.760498,263.455688 
	C380.731995,262.524780 379.703522,261.593872 378.194855,260.176819 
	C376.279755,260.372528 374.364655,260.568237 371.938354,260.805847 
	C371.618286,261.166840 371.298218,261.527832 370.420959,262.100189 
	C370.032349,262.744446 369.643707,263.388733 368.771637,264.684784 
	C359.775482,265.734650 352.382782,269.804260 346.600403,276.713593 
	C344.609192,279.092865 343.283020,282.083221 339.353485,281.842377 
	C338.642914,281.798859 337.207458,283.257324 337.184814,284.053040 
	C337.069580,288.100220 332.462036,293.219482 339.663177,295.764587 
	C340.090088,295.915497 340.200195,296.917725 340.490479,297.507660 
	C342.149506,300.879364 343.818481,304.246155 345.660522,307.971527 
	C342.451874,313.603455 343.897614,316.801483 350.356049,316.775787 
	C350.895020,315.118530 351.444946,313.427582 351.748413,312.494476 
	C360.679413,314.067444 369.237640,315.574707 377.833130,317.825073 
	C376.558716,322.857422 378.174927,324.545074 383.293213,323.734436 
	C384.364349,323.564819 385.924988,323.609955 386.588226,324.251099 
	C389.122772,326.701355 392.073944,328.171875 395.060944,326.107605 
	C396.945526,324.805237 398.532013,322.203674 399.005188,319.925873 
	C399.754852,316.316956 397.317505,314.104340 394.030487,312.339294 
	C395.334137,310.732513 396.637787,309.125702 398.567200,307.413116 
	C399.391052,307.334595 400.214935,307.256104 401.802124,307.285645 
	C402.724579,305.418335 403.647034,303.551025 404.931885,301.066101 
	C405.608032,298.001526 407.089020,294.612579 401.543488,293.318817 
	C401.021698,291.953979 400.342590,290.626984 400.003845,289.218109 
	C397.923889,280.567780 393.307159,273.735046 385.800659,268.872864 
	C384.576752,268.080078 383.535248,267.005737 382.544983,265.517609 
	C382.284790,265.035736 382.024567,264.553894 381.760498,263.455688 
M121.500000,164.990326 
	C113.076904,164.990326 104.653816,164.990326 96.316940,164.990326 
	C96.316940,219.374863 96.316940,273.077850 96.316940,326.601776 
	C121.375786,326.601776 146.079712,326.601776 170.639923,326.601776 
	C170.639923,272.584076 170.639923,219.009018 170.639923,164.990326 
	C154.405106,164.990326 138.452545,164.990326 121.500000,164.990326 
M201.501709,274.002563 
	C206.497757,273.995270 211.498459,274.123077 216.488876,273.951813 
	C226.059799,273.623291 232.008835,269.240295 235.116119,260.151520 
	C238.471695,250.336548 238.673141,240.224014 237.323120,230.054962 
	C236.441269,223.412445 234.139099,217.526245 226.855072,214.280670 
	C233.251282,211.026443 236.308548,206.003296 236.559479,199.676819 
	C236.789078,193.888153 236.712296,187.995071 235.880508,182.277481 
	C234.522736,172.944443 228.939484,167.675674 219.496399,167.041962 
	C210.209473,166.418686 200.863007,166.678543 191.542526,166.562332 
	C189.466934,166.536453 187.390762,166.558533 185.371246,166.558533 
	C185.371246,202.795578 185.371246,238.202332 185.371246,274.002411 
	C190.578308,274.002411 195.541077,274.002411 201.501709,274.002563 
M293.720154,262.104004 
	C294.764557,258.439178 296.662415,254.785965 296.712524,251.107605 
	C297.000336,229.966934 297.262909,208.808624 296.665741,187.680832 
	C296.388184,177.860794 291.273102,169.887283 281.209717,167.181290 
	C269.849548,164.126587 258.668518,164.261383 249.846039,173.893326 
	C248.534988,175.324677 247.297943,177.151810 246.861984,178.993546 
	C245.683975,183.970123 244.337326,189.033371 244.173981,194.098221 
	C243.787704,206.075897 243.934067,218.075928 244.088608,230.064041 
	C244.191391,238.036194 244.138046,246.071121 245.124100,253.956711 
	C246.557297,265.418121 254.142715,272.858765 264.999329,274.738098 
	C277.313385,276.869659 287.592407,272.515656 293.720154,262.104004 
M336.617981,251.500122 
	C336.617981,230.225998 336.617981,208.951874 336.617981,187.111603 
	C341.157043,187.111603 345.059540,187.111603 348.901978,187.111603 
	C348.901978,179.960556 348.901978,173.388184 348.901978,166.970795 
	C333.147034,166.970795 317.764069,166.970795 302.383514,166.970795 
	C302.383514,173.849838 302.383514,180.295792 302.383514,187.348755 
	C306.659119,187.348755 310.709137,187.348755 315.160522,187.348755 
	C315.160522,216.528427 315.160522,245.099060 315.160522,273.707581 
	C322.495636,273.707581 329.390778,273.707581 336.617981,273.707581 
	C336.617981,266.428070 336.617981,259.464050 336.617981,251.500122 
M232.793747,295.109985 
	C232.793747,305.689423 232.793747,316.268829 232.793747,326.641663 
	C236.309601,326.641663 239.044754,326.641663 242.300720,326.641663 
	C242.300720,319.757904 242.300720,313.238098 242.300720,306.718323 
	C243.005569,306.652161 243.710403,306.586029 244.415253,306.519867 
	C246.492294,312.953918 244.318970,320.016144 245.624451,326.734955 
	C248.497314,326.734955 251.226761,326.734955 254.667572,326.734955 
	C254.300735,318.639038 253.948654,310.868958 253.515747,301.314606 
	C256.069946,298.196075 255.629593,292.506836 254.068466,287.020081 
	C253.499222,285.019470 251.081772,282.357544 249.243500,282.129944 
	C243.926468,281.471588 238.475235,281.897034 232.795486,281.897034 
	C232.795486,286.262726 232.795486,290.244598 232.793747,295.109985 
M207.232590,306.503845 
	C204.111084,303.079742 200.852005,299.767334 197.936584,296.175903 
	C196.790237,294.763733 196.365631,292.743225 195.776520,290.945892 
	C195.731613,290.808899 197.547546,289.881500 197.577286,289.926727 
	C198.495316,291.324188 199.298279,292.797241 200.118347,294.257507 
	C202.815567,294.257507 205.662582,294.257507 208.518494,294.257507 
	C208.057358,286.633331 206.685684,283.899200 202.645782,282.136322 
	C197.872925,280.053619 192.101547,280.980865 189.237320,284.290588 
	C185.909576,288.135925 185.538162,295.744202 188.900345,300.174927 
	C191.197540,303.202209 194.406876,305.549561 196.619171,308.624786 
	C198.167175,310.776611 198.877747,313.600983 199.600143,316.224701 
	C199.769226,316.838745 198.472702,317.856384 197.850479,318.688354 
	C197.168335,317.917816 196.066513,317.232147 195.890106,316.359375 
	C195.505203,314.454987 195.591003,312.455444 195.471100,310.248444 
	C192.471100,310.248444 189.734589,310.248444 186.692764,310.248444 
	C186.692764,312.433289 186.560013,314.400696 186.716034,316.344940 
	C187.349976,324.244843 190.431229,327.240601 197.920502,327.389587 
	C204.637405,327.523224 208.275497,324.112396 208.751053,316.488098 
	C208.942093,313.425140 208.020081,310.292816 207.232590,306.503845 
M275.137695,326.993011 
	C275.896698,324.217468 276.655670,321.441895 277.609344,317.954407 
	C273.306458,317.954407 270.528259,317.954407 267.615570,317.954407 
	C267.615570,314.469666 267.615570,311.408875 267.615570,308.094940 
	C270.501038,307.919800 273.074188,307.763611 275.541748,307.613831 
	C275.541748,304.541504 275.541748,301.980194 275.541748,299.320099 
	C272.715515,299.143311 270.275940,298.990692 267.643188,298.826019 
	C267.643188,296.003052 267.643188,293.462646 267.643188,290.702820 
	C270.557312,290.485992 273.153595,290.292786 275.799316,290.095917 
	C275.799316,287.140930 275.799316,284.438354 275.799316,281.823853 
	C269.655457,281.823853 263.934357,281.823853 258.370422,281.823853 
	C258.370422,297.067566 258.370422,311.953430 258.370422,327.021362 
	C263.895142,327.021362 269.046936,327.021362 275.137695,326.993011 
M279.764709,318.830475 
	C279.764709,321.456024 279.764709,324.081573 279.764709,326.772461 
	C286.206635,326.772461 292.136353,326.772461 298.239807,326.772461 
	C298.239807,323.820312 298.239807,321.115173 298.239807,318.294281 
	C294.955536,318.125549 292.055420,317.976562 289.313965,317.835693 
	C289.313965,314.250397 289.313965,311.160370 289.313965,308.079529 
	C292.185791,307.896820 294.755554,307.733368 297.331512,307.569489 
	C297.331512,304.493317 297.331512,301.935181 297.331512,299.271118 
	C294.364410,299.119385 291.793091,298.987854 289.297546,298.860229 
	C289.297546,295.827637 289.297546,293.243774 289.297546,290.568176 
	C292.312988,290.417053 295.049469,290.279938 297.697327,290.147247 
	C297.697327,287.014862 297.697327,284.427826 297.697327,281.795959 
	C291.671356,281.795959 285.929413,281.795959 279.760101,281.795959 
	C279.760101,294.036163 279.760101,305.988464 279.764709,318.830475 
M305.254547,312.493256 
	C305.254547,317.259399 305.254547,322.025543 305.254547,326.765076 
	C308.647644,326.765076 311.413818,326.765076 314.751831,326.765076 
	C314.751831,314.602448 314.751831,302.712128 314.751831,290.778748 
	C316.755219,290.471588 318.198975,290.250244 319.801819,290.004486 
	C319.801819,287.234009 319.801819,284.609039 319.801819,281.695892 
	C313.242950,281.695892 306.835480,281.695892 300.313232,281.695892 
	C300.313232,284.611450 300.313232,287.328613 300.313232,289.995453 
	C302.056427,290.314758 303.472198,290.574097 305.251190,290.899963 
	C305.251190,297.888641 305.251190,304.691895 305.254547,312.493256 
M217.630112,281.479767 
	C215.224869,281.479767 212.819626,281.479767 210.541473,281.479767 
	C210.541473,284.848511 210.541473,287.416565 210.541473,289.935486 
	C212.324524,290.277618 213.746979,290.550568 215.682709,290.921967 
	C215.682709,302.926086 215.682709,314.804047 215.682709,326.763306 
	C219.001892,326.763306 221.758820,326.763306 224.944168,326.763306 
	C224.944168,314.617462 224.944168,302.713104 224.944168,290.820190 
	C226.910080,290.441528 228.455444,290.143860 229.824219,289.880219 
	C229.824219,286.878143 229.824219,284.308777 229.824219,281.483185 
	C225.851212,281.483185 222.216324,281.483185 217.630112,281.479767 
M337.123077,322.195831 
	C340.632568,321.295593 342.864624,318.841492 342.421906,315.440826 
	C342.125610,313.164978 340.434906,310.065308 338.551086,309.270264 
	C336.460236,308.387848 332.803619,308.899292 331.015717,310.309143 
	C329.433990,311.556396 328.706696,314.965546 328.985321,317.251709 
	C329.453033,321.089050 332.588715,322.472992 337.123077,322.195831 
M367.458069,347.994751 
	C370.777985,344.803802 370.767426,340.985901 368.080170,337.859863 
	C366.483521,336.002502 362.034973,333.874207 361.208496,334.585663 
	C358.687012,336.756409 356.945618,340.107086 355.699982,343.309509 
	C355.352570,344.202759 357.506958,346.969299 358.987610,347.467285 
	C361.344360,348.259857 364.098785,347.869904 367.458069,347.994751 
M369.059631,330.196625 
	C370.850464,328.618286 372.641296,327.039978 375.315094,324.683441 
	C366.598145,322.450012 359.500275,320.631409 352.441925,318.822937 
	C350.754333,324.125183 352.312531,326.962250 357.034424,327.947327 
	C360.756073,328.723755 364.488281,329.449768 369.059631,330.196625 
M347.988892,346.683105 
	C348.893860,344.960999 350.761383,343.070892 350.496460,341.552979 
	C349.998383,338.699310 348.654419,335.759796 346.870575,333.473633 
	C346.108093,332.496490 342.487061,332.241791 341.682434,333.093079 
	C339.418762,335.488007 337.806793,338.558777 336.295837,341.544250 
	C336.055237,342.019653 337.467560,343.921661 338.454773,344.316742 
	C341.314148,345.460938 344.346252,346.173492 347.988892,346.683105 
z"/>
<path fill="#E2E2DA" opacity="1.000000" stroke="none" 
	d="
M122.000000,164.990326 
	C138.452545,164.990326 154.405106,164.990326 170.639923,164.990326 
	C170.639923,219.009018 170.639923,272.584076 170.639923,326.601776 
	C146.079712,326.601776 121.375786,326.601776 96.316940,326.601776 
	C96.316940,273.077850 96.316940,219.374863 96.316940,164.990326 
	C104.653816,164.990326 113.076904,164.990326 122.000000,164.990326 
M156.985764,226.088211 
	C156.990570,222.931107 157.051147,219.772903 156.989090,216.617111 
	C156.838303,208.949265 154.086639,205.311295 146.442276,204.925568 
	C136.179153,204.407700 125.857086,204.568832 115.581856,204.978531 
	C110.107399,205.196823 107.131966,208.694443 106.899155,214.068420 
	C106.712822,218.369827 106.969963,222.690430 106.912476,227.889282 
	C107.518715,228.321594 108.123199,229.128586 108.731468,229.131439 
	C124.002457,229.203293 139.274094,229.222168 154.544403,229.099869 
	C155.313477,229.093704 156.071716,227.738220 156.985764,226.088211 
M111.675323,298.878021 
	C126.608566,298.878021 141.541809,298.878021 156.720551,298.878021 
	C156.720551,295.375397 156.720551,292.333740 156.720551,288.882263 
	C149.659210,288.882263 142.867859,288.882263 136.076492,288.882263 
	C136.061478,288.653259 136.046478,288.424255 136.031464,288.195282 
	C142.941833,286.759735 149.852203,285.324188 156.674469,283.906952 
	C156.674469,280.460541 156.674469,277.395050 156.674469,274.340790 
	C139.941727,274.340790 123.546272,274.340790 107.042923,274.340790 
	C107.042923,277.545227 107.042923,280.455658 107.042923,283.855103 
	C113.011131,283.855103 118.691093,283.855103 124.371056,283.855103 
	C124.409897,284.199890 124.448746,284.544708 124.487595,284.889496 
	C118.749580,286.065552 113.011574,287.241638 106.784042,288.518036 
	C106.784042,290.781555 106.965332,292.920959 106.741608,295.017120 
	C106.405174,298.169281 107.748024,299.281677 111.675323,298.878021 
M134.180466,261.636841 
	C137.198380,259.745728 140.075394,257.522339 143.313095,256.149658 
	C144.398712,255.689392 146.403580,257.397400 147.988281,258.114319 
	C146.593079,258.956268 145.289642,260.157654 143.778015,260.543640 
	C142.118042,260.967468 140.266251,260.640198 138.449738,260.640198 
	C138.449738,264.220062 138.449738,267.131622 138.449738,271.015045 
	C142.900421,270.386475 147.052261,270.232330 150.942963,269.144318 
	C156.142868,267.690247 157.137482,263.127533 157.363312,258.413116 
	C157.575363,253.986542 156.566727,249.981995 152.258606,247.855026 
	C147.147736,245.331741 136.409210,244.106354 130.332123,250.613419 
	C127.718636,253.411819 125.121239,256.273376 122.177292,258.693573 
	C120.819870,259.809479 118.662537,260.001526 116.822884,260.409424 
	C116.628342,260.452606 116.129631,259.123932 115.772041,258.431702 
	C117.250244,257.690826 118.734756,256.962097 120.200859,256.198029 
	C120.468697,256.058441 120.661499,255.774826 120.751007,255.689377 
	C120.751007,252.438339 120.751007,249.338135 120.751007,245.939194 
	C118.255951,246.343750 116.080673,246.502426 114.017395,247.068970 
	C108.725388,248.522079 105.922310,253.128906 106.246078,259.499329 
	C106.550682,265.492706 109.833191,268.996857 115.489799,270.142120 
	C123.540581,271.772156 128.823441,267.567963 134.180466,261.636841 
M106.765282,186.624847 
	C106.765282,191.202576 106.765282,195.780289 106.765282,200.311295 
	C123.983345,200.311295 140.377075,200.311295 156.738327,200.311295 
	C156.738327,193.366028 156.738327,186.759293 156.738327,180.229431 
	C153.416016,180.229431 150.388809,180.229431 146.868500,180.229431 
	C146.868500,183.777771 146.868500,186.853485 146.868500,189.836731 
	C142.943787,189.836731 139.533936,189.836731 135.945877,189.836731 
	C135.807861,186.745773 135.684448,183.982208 135.561462,181.227905 
	C132.213425,181.227905 129.331909,181.227905 125.941055,181.227905 
	C125.941055,184.375565 125.941055,187.112595 125.941055,189.807587 
	C122.520447,189.807587 119.634537,189.807587 116.222992,189.807587 
	C116.222992,186.486618 116.222992,183.570358 116.222992,180.576630 
	C112.911690,180.576630 110.137367,180.576630 107.001045,180.576630 
	C106.915092,182.437897 106.840500,184.053177 106.765282,186.624847 
M132.500168,243.009277 
	C140.589951,243.009277 148.679749,243.009277 156.736313,243.009277 
	C156.736313,239.408218 156.736313,236.482529 156.736313,233.436432 
	C140.074356,233.436432 123.683846,233.436432 107.035294,233.436432 
	C107.035294,236.619980 107.035294,239.533737 107.035294,243.022812 
	C115.277924,243.022812 123.389076,243.022812 132.500168,243.009277 
M157.022232,308.359711 
	C157.022232,306.605865 157.022232,304.851990 157.022232,303.135620 
	C139.922684,303.135620 123.520157,303.135620 107.054558,303.135620 
	C107.054558,306.342529 107.054558,309.244965 107.054558,312.577332 
	C123.136978,312.577332 138.914398,312.624817 154.689041,312.437073 
	C155.478180,312.427734 156.243057,310.378754 157.022232,308.359711 
z"/>
<path fill="#E4E4DA" opacity="1.000000" stroke="none" 
	d="
M201.002777,274.002502 
	C195.541077,274.002411 190.578308,274.002411 185.371246,274.002411 
	C185.371246,238.202332 185.371246,202.795578 185.371246,166.558533 
	C187.390762,166.558533 189.466934,166.536453 191.542526,166.562332 
	C200.863007,166.678543 210.209473,166.418686 219.496399,167.041962 
	C228.939484,167.675674 234.522736,172.944443 235.880508,182.277481 
	C236.712296,187.995071 236.789078,193.888153 236.559479,199.676819 
	C236.308548,206.003296 233.251282,211.026443 226.855072,214.280670 
	C234.139099,217.526245 236.441269,223.412445 237.323120,230.054962 
	C238.673141,240.224014 238.471695,250.336548 235.116119,260.151520 
	C232.008835,269.240295 226.059799,273.623291 216.488876,273.951813 
	C211.498459,274.123077 206.497757,273.995270 201.002777,274.002502 
M206.235596,232.576385 
	C206.235596,239.980728 206.235596,247.385086 206.235596,254.721069 
	C213.544998,255.168625 216.422501,253.301086 216.710602,247.792587 
	C216.988190,242.485428 217.016129,237.125748 216.604691,231.831818 
	C216.063278,224.865051 214.046265,223.512665 206.235626,224.310410 
	C206.235626,226.692169 206.235626,229.149063 206.235596,232.576385 
M206.206757,203.175537 
	C206.162643,205.212616 205.902557,207.186829 209.104141,207.053177 
	C212.078354,206.929031 214.618942,206.353500 214.904785,202.979263 
	C215.255081,198.843872 215.245544,194.671326 215.248978,190.514725 
	C215.254791,183.494934 214.252289,182.686356 206.213013,183.450272 
	C206.213013,189.663269 206.213013,195.952271 206.206757,203.175537 
z"/>
<path fill="#E3E3DA" opacity="1.000000" stroke="none" 
	d="
M293.521912,262.422180 
	C287.592407,272.515656 277.313385,276.869659 264.999329,274.738098 
	C254.142715,272.858765 246.557297,265.418121 245.124100,253.956711 
	C244.138046,246.071121 244.191391,238.036194 244.088608,230.064041 
	C243.934067,218.075928 243.787704,206.075897 244.173981,194.098221 
	C244.337326,189.033371 245.683975,183.970123 246.861984,178.993546 
	C247.297943,177.151810 248.534988,175.324677 249.846039,173.893326 
	C258.668518,164.261383 269.849548,164.126587 281.209717,167.181290 
	C291.273102,169.887283 296.388184,177.860794 296.665741,187.680832 
	C297.262909,208.808624 297.000336,229.966934 296.712524,251.107605 
	C296.662415,254.785965 294.764557,258.439178 293.521912,262.422180 
M269.823608,185.541901 
	C265.221466,186.722198 265.447968,190.605453 265.429169,194.002823 
	C265.332428,211.479202 265.395325,228.956604 265.456879,246.433456 
	C265.462677,248.081680 265.364227,250.040970 266.177368,251.296951 
	C267.192627,252.865097 269.126221,254.845932 270.620300,254.810989 
	C272.088989,254.776642 274.343781,252.662140 274.761292,251.069290 
	C275.544312,248.082001 275.379211,244.812607 275.383057,241.660278 
	C275.403107,225.184235 275.377686,208.707993 275.304810,192.232086 
	C275.290375,188.963837 275.015594,185.685577 269.823608,185.541901 
z"/>
<path fill="#E3E3DA" opacity="1.000000" stroke="none" 
	d="
M336.617981,252.000061 
	C336.617981,259.464050 336.617981,266.428070 336.617981,273.707581 
	C329.390778,273.707581 322.495636,273.707581 315.160522,273.707581 
	C315.160522,245.099060 315.160522,216.528427 315.160522,187.348755 
	C310.709137,187.348755 306.659119,187.348755 302.383514,187.348755 
	C302.383514,180.295792 302.383514,173.849838 302.383514,166.970795 
	C317.764069,166.970795 333.147034,166.970795 348.901978,166.970795 
	C348.901978,173.388184 348.901978,179.960556 348.901978,187.111603 
	C345.059540,187.111603 341.157043,187.111603 336.617981,187.111603 
	C336.617981,208.951874 336.617981,230.225998 336.617981,252.000061 
z"/>
<path fill="#E1E1DE" opacity="1.000000" stroke="none" 
	d="
M382.409424,266.061554 
	C383.535248,267.005737 384.576752,268.080078 385.800659,268.872864 
	C393.307159,273.735046 397.923889,280.567780 400.003845,289.218109 
	C400.342590,290.626984 401.021698,291.953979 401.781189,293.983276 
	C402.194122,297.237732 400.271912,300.588074 404.569489,301.683716 
	C403.647034,303.551025 402.724579,305.418335 401.412537,306.967163 
	C399.134949,303.890472 398.809570,306.665649 397.941467,307.518921 
	C396.637787,309.125702 395.334137,310.732513 393.725098,312.913940 
	C388.211761,314.686371 383.003815,315.884186 377.795868,317.082031 
	C369.237640,315.574707 360.679413,314.067444 351.748413,312.494476 
	C351.444946,313.427582 350.895020,315.118530 350.356049,316.775787 
	C343.897614,316.801483 342.451874,313.603455 345.660522,307.971527 
	C343.818481,304.246155 342.149506,300.879364 340.490479,297.507660 
	C340.200195,296.917725 340.090088,295.915497 339.663177,295.764587 
	C332.462036,293.219482 337.069580,288.100220 337.184814,284.053040 
	C337.207458,283.257324 338.642914,281.798859 339.353485,281.842377 
	C343.283020,282.083221 344.609192,279.092865 346.600403,276.713593 
	C352.382782,269.804260 359.775482,265.734650 369.302948,264.270477 
	C370.215576,263.200409 370.596863,262.544617 370.978149,261.888855 
	C371.298218,261.527832 371.618286,261.166840 372.710999,260.850677 
	C375.214081,260.817963 376.944580,260.740448 378.675049,260.662933 
	C379.703522,261.593872 380.731995,262.524780 381.615234,263.930298 
	C381.783081,264.957123 382.096252,265.509338 382.409424,266.061554 
M361.590424,273.828705 
	C354.911377,276.612000 350.485779,281.536743 347.979950,288.245819 
	C345.126068,295.886688 347.424042,302.759979 355.130035,305.295410 
	C363.228546,307.960022 371.782013,309.772278 380.267700,310.579193 
	C388.602966,311.371796 393.380066,306.033478 393.967682,297.564850 
	C395.029999,282.254547 380.011139,266.638428 361.590424,273.828705 
M377.138123,262.636200 
	C375.705139,262.765930 374.272186,262.895660 372.839203,263.025391 
	C373.016052,263.643036 373.192871,264.260681 373.369690,264.878326 
	C374.791595,264.215698 376.213470,263.553101 377.138123,262.636200 
M348.499451,314.524170 
	C348.499451,314.524170 348.479950,314.477020 348.499451,314.524170 
z"/>
<path fill="#E2E2DA" opacity="1.000000" stroke="none" 
	d="
M232.794617,294.668213 
	C232.795486,290.244598 232.795486,286.262726 232.795486,281.897034 
	C238.475235,281.897034 243.926468,281.471588 249.243500,282.129944 
	C251.081772,282.357544 253.499222,285.019470 254.068466,287.020081 
	C255.629593,292.506836 256.069946,298.196075 253.515747,301.314606 
	C253.948654,310.868958 254.300735,318.639038 254.667572,326.734955 
	C251.226761,326.734955 248.497314,326.734955 245.624451,326.734955 
	C244.318970,320.016144 246.492294,312.953918 244.415253,306.519867 
	C243.710403,306.586029 243.005569,306.652161 242.300720,306.718323 
	C242.300720,313.238098 242.300720,319.757904 242.300720,326.641663 
	C239.044754,326.641663 236.309601,326.641663 232.793747,326.641663 
	C232.793747,316.268829 232.793747,305.689423 232.794617,294.668213 
M246.033463,294.484406 
	C245.622635,290.535614 245.622635,290.535614 242.431427,290.633545 
	C242.431427,293.147186 242.431427,295.633850 242.431427,298.120514 
	C242.823776,298.293030 243.216125,298.465515 243.608459,298.638000 
	C244.403442,297.547272 245.198410,296.456573 246.033463,294.484406 
z"/>
<path fill="#DEDFD6" opacity="1.000000" stroke="none" 
	d="
M207.418625,306.847961 
	C208.020081,310.292816 208.942093,313.425140 208.751053,316.488098 
	C208.275497,324.112396 204.637405,327.523224 197.920502,327.389587 
	C190.431229,327.240601 187.349976,324.244843 186.716034,316.344940 
	C186.560013,314.400696 186.692764,312.433289 186.692764,310.248444 
	C189.734589,310.248444 192.471100,310.248444 195.471100,310.248444 
	C195.591003,312.455444 195.505203,314.454987 195.890106,316.359375 
	C196.066513,317.232147 197.168335,317.917816 197.850464,318.688354 
	C198.472702,317.856384 199.769226,316.838745 199.600143,316.224701 
	C198.877747,313.600983 198.167175,310.776611 196.619171,308.624786 
	C194.406876,305.549561 191.197540,303.202209 188.900345,300.174927 
	C185.538162,295.744202 185.909576,288.135925 189.237320,284.290588 
	C192.101547,280.980865 197.872925,280.053619 202.645782,282.136322 
	C206.685684,283.899200 208.057358,286.633331 208.518494,294.257507 
	C205.662582,294.257507 202.815567,294.257507 200.118347,294.257507 
	C199.298279,292.797241 198.495316,291.324188 197.577286,289.926727 
	C197.547546,289.881500 195.731613,290.808899 195.776520,290.945892 
	C196.365631,292.743225 196.790237,294.763733 197.936584,296.175903 
	C200.852005,299.767334 204.111084,303.079742 207.418625,306.847961 
z"/>
<path fill="#E1E1D9" opacity="1.000000" stroke="none" 
	d="
M274.668213,327.007202 
	C269.046936,327.021362 263.895142,327.021362 258.370422,327.021362 
	C258.370422,311.953430 258.370422,297.067566 258.370422,281.823853 
	C263.934357,281.823853 269.655457,281.823853 275.799316,281.823853 
	C275.799316,284.438354 275.799316,287.140930 275.799316,290.095917 
	C273.153595,290.292786 270.557312,290.485992 267.643188,290.702820 
	C267.643188,293.462646 267.643188,296.003052 267.643188,298.826019 
	C270.275940,298.990692 272.715515,299.143311 275.541748,299.320099 
	C275.541748,301.980194 275.541748,304.541504 275.541748,307.613831 
	C273.074188,307.763611 270.501038,307.919800 267.615570,308.094940 
	C267.615570,311.408875 267.615570,314.469666 267.615570,317.954407 
	C270.528259,317.954407 273.306458,317.954407 277.609344,317.954407 
	C276.655670,321.441895 275.896698,324.217468 274.668213,327.007202 
z"/>
<path fill="#E3E3DA" opacity="1.000000" stroke="none" 
	d="
M279.762390,318.385620 
	C279.760101,305.988464 279.760101,294.036163 279.760101,281.795959 
	C285.929413,281.795959 291.671356,281.795959 297.697327,281.795959 
	C297.697327,284.427826 297.697327,287.014862 297.697327,290.147247 
	C295.049469,290.279938 292.312988,290.417053 289.297546,290.568176 
	C289.297546,293.243774 289.297546,295.827637 289.297546,298.860229 
	C291.793091,298.987854 294.364410,299.119385 297.331512,299.271118 
	C297.331512,301.935181 297.331512,304.493317 297.331512,307.569489 
	C294.755554,307.733368 292.185791,307.896820 289.313965,308.079529 
	C289.313965,311.160370 289.313965,314.250397 289.313965,317.835693 
	C292.055420,317.976562 294.955536,318.125549 298.239807,318.294281 
	C298.239807,321.115173 298.239807,323.820312 298.239807,326.772461 
	C292.136353,326.772461 286.206635,326.772461 279.764709,326.772461 
	C279.764709,324.081573 279.764709,321.456024 279.762390,318.385620 
z"/>
<path fill="#D9DAD1" opacity="1.000000" stroke="none" 
	d="
M305.252869,311.994202 
	C305.251190,304.691895 305.251190,297.888641 305.251190,290.899963 
	C303.472198,290.574097 302.056427,290.314758 300.313232,289.995453 
	C300.313232,287.328613 300.313232,284.611450 300.313232,281.695892 
	C306.835480,281.695892 313.242950,281.695892 319.801819,281.695892 
	C319.801819,284.609039 319.801819,287.234009 319.801819,290.004486 
	C318.198975,290.250244 316.755219,290.471588 314.751831,290.778748 
	C314.751831,302.712128 314.751831,314.602448 314.751831,326.765076 
	C311.413818,326.765076 308.647644,326.765076 305.254547,326.765076 
	C305.254547,322.025543 305.254547,317.259399 305.252869,311.994202 
z"/>
<path fill="#E0E0D8" opacity="1.000000" stroke="none" 
	d="
M218.105774,281.481476 
	C222.216324,281.483185 225.851212,281.483185 229.824219,281.483185 
	C229.824219,284.308777 229.824219,286.878143 229.824219,289.880219 
	C228.455444,290.143860 226.910080,290.441528 224.944168,290.820190 
	C224.944168,302.713104 224.944168,314.617462 224.944168,326.763306 
	C221.758820,326.763306 219.001892,326.763306 215.682709,326.763306 
	C215.682709,314.804047 215.682709,302.926086 215.682709,290.921967 
	C213.746979,290.550568 212.324524,290.277618 210.541473,289.935486 
	C210.541473,287.416565 210.541473,284.848511 210.541473,281.479767 
	C212.819626,281.479767 215.224869,281.479767 218.105774,281.481476 
z"/>
<path fill="#D3D3D2" opacity="1.000000" stroke="none" 
	d="
M377.814514,317.453552 
	C383.003815,315.884186 388.211761,314.686371 393.681000,313.255615 
	C397.317505,314.104340 399.754852,316.316956 399.005188,319.925873 
	C398.532013,322.203674 396.945526,324.805237 395.060944,326.107605 
	C392.073944,328.171875 389.122772,326.701355 386.588226,324.251099 
	C385.924988,323.609955 384.364349,323.564819 383.293213,323.734436 
	C378.174927,324.545074 376.558716,322.857422 377.814514,317.453552 
z"/>
<path fill="#DDDCDA" opacity="1.000000" stroke="none" 
	d="
M336.720673,322.274139 
	C332.588715,322.472992 329.453033,321.089050 328.985321,317.251709 
	C328.706696,314.965546 329.433990,311.556396 331.015717,310.309143 
	C332.803619,308.899292 336.460236,308.387848 338.551086,309.270264 
	C340.434906,310.065308 342.125610,313.164978 342.421906,315.440826 
	C342.864624,318.841492 340.632568,321.295593 336.720673,322.274139 
z"/>
<path fill="#DDDCDA" opacity="1.000000" stroke="none" 
	d="
M367.071533,347.987427 
	C364.098785,347.869904 361.344360,348.259857 358.987610,347.467285 
	C357.506958,346.969299 355.352570,344.202759 355.699982,343.309509 
	C356.945618,340.107086 358.687012,336.756409 361.208496,334.585663 
	C362.034973,333.874207 366.483521,336.002502 368.080170,337.859863 
	C370.767426,340.985901 370.777985,344.803802 367.071533,347.987427 
z"/>
<path fill="#E1E1DE" opacity="1.000000" stroke="none" 
	d="
M368.637695,330.197388 
	C364.488281,329.449768 360.756073,328.723755 357.034424,327.947327 
	C352.312531,326.962250 350.754333,324.125183 352.441925,318.822937 
	C359.500275,320.631409 366.598145,322.450012 375.315094,324.683441 
	C372.641296,327.039978 370.850464,328.618286 368.637695,330.197388 
z"/>
<path fill="#DDDCDA" opacity="1.000000" stroke="none" 
	d="
M347.649719,346.869293 
	C344.346252,346.173492 341.314148,345.460938 338.454773,344.316742 
	C337.467560,343.921661 336.055237,342.019653 336.295837,341.544250 
	C337.806793,338.558777 339.418762,335.488007 341.682434,333.093079 
	C342.487061,332.241791 346.108093,332.496490 346.870575,333.473633 
	C348.654419,335.759796 349.998383,338.699310 350.496460,341.552979 
	C350.761383,343.070892 348.893860,344.960999 347.649719,346.869293 
z"/>
<path fill="#CECECC" opacity="1.000000" stroke="none" 
	d="
M404.750671,301.374908 
	C400.271912,300.588074 402.194122,297.237732 402.023376,294.253937 
	C407.089020,294.612579 405.608032,298.001526 404.750671,301.374908 
z"/>
<path fill="#CECECC" opacity="1.000000" stroke="none" 
	d="
M378.434937,260.419861 
	C376.944580,260.740448 375.214081,260.817963 372.966583,260.829712 
	C374.364655,260.568237 376.279755,260.372528 378.434937,260.419861 
z"/>
<path fill="#CECECC" opacity="1.000000" stroke="none" 
	d="
M398.254333,307.466003 
	C398.809570,306.665649 399.134949,303.890472 401.030884,306.913147 
	C400.214935,307.256104 399.391052,307.334595 398.254333,307.466003 
z"/>
<path fill="#CECECC" opacity="1.000000" stroke="none" 
	d="
M370.699554,261.994507 
	C370.596863,262.544617 370.215576,263.200409 369.544678,263.944580 
	C369.643707,263.388733 370.032349,262.744446 370.699554,261.994507 
z"/>
<path fill="#CECECC" opacity="1.000000" stroke="none" 
	d="
M382.477203,265.789581 
	C382.096252,265.509338 381.783081,264.957123 381.617126,264.238464 
	C382.024567,264.553894 382.284790,265.035736 382.477203,265.789581 
z"/>
<path fill="#302F2E" opacity="1.000000" stroke="none" 
	d="
M111.196747,298.871185 
	C107.748024,299.281677 106.405174,298.169281 106.741608,295.017120 
	C106.965332,292.920959 106.784042,290.781555 106.784042,288.518036 
	C113.011574,287.241638 118.749580,286.065552 124.487595,284.889496 
	C124.448746,284.544708 124.409897,284.199890 124.371056,283.855103 
	C118.691093,283.855103 113.011131,283.855103 107.042923,283.855103 
	C107.042923,280.455658 107.042923,277.545227 107.042923,274.340790 
	C123.546272,274.340790 139.941727,274.340790 156.674469,274.340790 
	C156.674469,277.395050 156.674469,280.460541 156.674469,283.906952 
	C149.852203,285.324188 142.941833,286.759735 136.031464,288.195282 
	C136.046478,288.424255 136.061478,288.653259 136.076492,288.882263 
	C142.867859,288.882263 149.659210,288.882263 156.720551,288.882263 
	C156.720551,292.333740 156.720551,295.375397 156.720551,298.878021 
	C141.541809,298.878021 126.608566,298.878021 111.196747,298.871185 
z"/>
<path fill="#323230" opacity="1.000000" stroke="none" 
	d="
M107.030289,227.002518 
	C106.969963,222.690430 106.712822,218.369827 106.899155,214.068420 
	C107.131966,208.694443 110.107399,205.196823 115.581856,204.978531 
	C125.857086,204.568832 136.179153,204.407700 146.442276,204.925568 
	C154.086639,205.311295 156.838303,208.949265 156.989090,216.617111 
	C157.051147,219.772903 156.990570,222.931107 156.452271,226.541687 
	C139.622620,226.997620 123.326454,227.000076 107.030289,227.002518 
M129.508545,214.731308 
	C124.965370,215.908234 119.013405,212.023834 114.684547,218.713989 
	C126.591797,218.713989 137.233704,218.713989 147.875610,218.713989 
	C148.081818,218.194107 148.288040,217.674210 148.494247,217.154327 
	C146.980255,216.349075 145.507767,214.960632 143.944366,214.849335 
	C139.483887,214.531738 134.986404,214.733719 129.508545,214.731308 
z"/>
<path fill="#323230" opacity="1.000000" stroke="none" 
	d="
M133.923920,261.892578 
	C128.823441,267.567963 123.540581,271.772156 115.489799,270.142120 
	C109.833191,268.996857 106.550682,265.492706 106.246078,259.499329 
	C105.922310,253.128906 108.725388,248.522079 114.017395,247.068970 
	C116.080673,246.502426 118.255951,246.343750 120.751007,245.939194 
	C120.751007,249.338135 120.751007,252.438339 120.751007,255.689377 
	C120.661499,255.774826 120.468697,256.058441 120.200859,256.198029 
	C118.734756,256.962097 117.250244,257.690826 115.772041,258.431702 
	C116.129631,259.123932 116.628342,260.452606 116.822884,260.409424 
	C118.662537,260.001526 120.819870,259.809479 122.177292,258.693573 
	C125.121239,256.273376 127.718636,253.411819 130.332123,250.613419 
	C136.409210,244.106354 147.147736,245.331741 152.258606,247.855026 
	C156.566727,249.981995 157.575363,253.986542 157.363312,258.413116 
	C157.137482,263.127533 156.142868,267.690247 150.942963,269.144318 
	C147.052261,270.232330 142.900421,270.386475 138.449738,271.015045 
	C138.449738,267.131622 138.449738,264.220062 138.449738,260.640198 
	C140.266251,260.640198 142.118042,260.967468 143.778015,260.543640 
	C145.289642,260.157654 146.593079,258.956268 147.988281,258.114319 
	C146.403580,257.397400 144.398712,255.689392 143.313095,256.149658 
	C140.075394,257.522339 137.198380,259.745728 133.923920,261.892578 
z"/>
<path fill="#353433" opacity="1.000000" stroke="none" 
	d="
M106.765594,186.146667 
	C106.840500,184.053177 106.915092,182.437897 107.001045,180.576630 
	C110.137367,180.576630 112.911690,180.576630 116.222992,180.576630 
	C116.222992,183.570358 116.222992,186.486618 116.222992,189.807587 
	C119.634537,189.807587 122.520447,189.807587 125.941055,189.807587 
	C125.941055,187.112595 125.941055,184.375565 125.941055,181.227905 
	C129.331909,181.227905 132.213425,181.227905 135.561462,181.227905 
	C135.684448,183.982208 135.807861,186.745773 135.945877,189.836731 
	C139.533936,189.836731 142.943787,189.836731 146.868500,189.836731 
	C146.868500,186.853485 146.868500,183.777771 146.868500,180.229431 
	C150.388809,180.229431 153.416016,180.229431 156.738327,180.229431 
	C156.738327,186.759293 156.738327,193.366028 156.738327,200.311295 
	C140.377075,200.311295 123.983345,200.311295 106.765282,200.311295 
	C106.765282,195.780289 106.765282,191.202576 106.765594,186.146667 
z"/>
<path fill="#302F2E" opacity="1.000000" stroke="none" 
	d="
M132.000198,243.016052 
	C123.389076,243.022812 115.277924,243.022812 107.035294,243.022812 
	C107.035294,239.533737 107.035294,236.619980 107.035294,233.436432 
	C123.683846,233.436432 140.074356,233.436432 156.736313,233.436432 
	C156.736313,236.482529 156.736313,239.408218 156.736313,243.009277 
	C148.679749,243.009277 140.589951,243.009277 132.000198,243.016052 
z"/>
<path fill="#353433" opacity="1.000000" stroke="none" 
	d="
M157.020721,308.819580 
	C156.243057,310.378754 155.478180,312.427734 154.689041,312.437073 
	C138.914398,312.624817 123.136978,312.577332 107.054558,312.577332 
	C107.054558,309.244965 107.054558,306.342529 107.054558,303.135620 
	C123.520157,303.135620 139.922684,303.135620 157.022232,303.135620 
	C157.022232,304.851990 157.022232,306.605865 157.020721,308.819580 
z"/>
<path fill="#272726" opacity="1.000000" stroke="none" 
	d="
M106.971382,227.445892 
	C123.326454,227.000076 139.622620,226.997620 156.376892,227.003098 
	C156.071716,227.738220 155.313477,229.093704 154.544403,229.099869 
	C139.274094,229.222168 124.002457,229.203293 108.731468,229.131439 
	C108.123199,229.128586 107.518715,228.321594 106.971382,227.445892 
z"/>
<path fill="#373634" opacity="1.000000" stroke="none" 
	d="
M206.235611,232.091171 
	C206.235626,229.149063 206.235626,226.692169 206.235626,224.310410 
	C214.046265,223.512665 216.063278,224.865051 216.604691,231.831818 
	C217.016129,237.125748 216.988190,242.485428 216.710602,247.792587 
	C216.422501,253.301086 213.544998,255.168625 206.235596,254.721069 
	C206.235596,247.385086 206.235596,239.980728 206.235611,232.091171 
z"/>
<path fill="#353433" opacity="1.000000" stroke="none" 
	d="
M206.209885,202.708405 
	C206.213013,195.952271 206.213013,189.663269 206.213013,183.450272 
	C214.252289,182.686356 215.254791,183.494934 215.248978,190.514725 
	C215.245544,194.671326 215.255081,198.843872 214.904785,202.979263 
	C214.618942,206.353500 212.078354,206.929031 209.104141,207.053177 
	C205.902557,207.186829 206.162643,205.212616 206.209885,202.708405 
z"/>
<path fill="#353332" opacity="1.000000" stroke="none" 
	d="
M270.189331,185.488007 
	C275.015594,185.685577 275.290375,188.963837 275.304810,192.232086 
	C275.377686,208.707993 275.403107,225.184235 275.383057,241.660278 
	C275.379211,244.812607 275.544312,248.082001 274.761292,251.069290 
	C274.343781,252.662140 272.088989,254.776642 270.620300,254.810989 
	C269.126221,254.845932 267.192627,252.865097 266.177368,251.296951 
	C265.364227,250.040970 265.462677,248.081680 265.456879,246.433456 
	C265.395325,228.956604 265.332428,211.479202 265.429169,194.002823 
	C265.447968,190.605453 265.221466,186.722198 270.189331,185.488007 
z"/>
<path fill="#272726" opacity="1.000000" stroke="none" 
	d="
M361.941772,273.646423 
	C380.011139,266.638428 395.029999,282.254547 393.967682,297.564850 
	C393.380066,306.033478 388.602966,311.371796 380.267700,310.579193 
	C371.782013,309.772278 363.228546,307.960022 355.130035,305.295410 
	C347.424042,302.759979 345.126068,295.886688 347.979950,288.245819 
	C350.485779,281.536743 354.911377,276.612000 361.941772,273.646423 
M361.559570,296.949768 
	C362.619080,295.259552 363.952911,293.659180 364.555634,291.819336 
	C364.717224,291.325989 362.014618,289.170044 361.714996,289.374207 
	C360.348572,290.305328 358.766418,291.678314 358.457947,293.144196 
	C358.242340,294.168671 359.959564,295.599945 361.559570,296.949768 
M375.679657,294.247742 
	C375.942291,296.095215 376.065063,297.987610 376.627106,299.738983 
	C376.706146,299.985168 379.749390,299.913574 380.009003,299.344757 
	C380.679840,297.875244 381.058807,295.865051 380.542145,294.436951 
	C380.293030,293.748413 377.763489,293.884888 375.679657,294.247742 
z"/>
<path fill="#CECECC" opacity="1.000000" stroke="none" 
	d="
M377.386749,262.763336 
	C376.213470,263.553101 374.791595,264.215698 373.369690,264.878326 
	C373.192871,264.260681 373.016052,263.643036 372.839203,263.025391 
	C374.272186,262.895660 375.705139,262.765930 377.386749,262.763336 
z"/>
<path fill="#CECECC" opacity="1.000000" stroke="none" 
	d="
M348.489685,314.500610 
	C348.479950,314.477020 348.499451,314.524170 348.489685,314.500610 
z"/>
<path fill="#373634" opacity="1.000000" stroke="none" 
	d="
M246.013428,294.925140 
	C245.198410,296.456573 244.403442,297.547272 243.608459,298.638000 
	C243.216125,298.465515 242.823776,298.293030 242.431427,298.120514 
	C242.431427,295.633850 242.431427,293.147186 242.431427,290.633545 
	C245.622635,290.535614 245.622635,290.535614 246.013428,294.925140 
z"/>
<path fill="#E4E4DA" opacity="1.000000" stroke="none" 
	d="
M130.006012,214.731308 
	C134.986404,214.733719 139.483887,214.531738 143.944366,214.849335 
	C145.507767,214.960632 146.980255,216.349075 148.494247,217.154327 
	C148.288040,217.674210 148.081818,218.194107 147.875610,218.713989 
	C137.233704,218.713989 126.591797,218.713989 114.684547,218.713989 
	C119.013405,212.023834 124.965370,215.908234 130.006012,214.731308 
z"/>
<path fill="#D3D3D2" opacity="1.000000" stroke="none" 
	d="
M361.186523,296.899658 
	C359.959564,295.599945 358.242340,294.168671 358.457947,293.144196 
	C358.766418,291.678314 360.348572,290.305328 361.714996,289.374207 
	C362.014618,289.170044 364.717224,291.325989 364.555634,291.819336 
	C363.952911,293.659180 362.619080,295.259552 361.186523,296.899658 
z"/>
<path fill="#DDDCDA" opacity="1.000000" stroke="none" 
	d="
M375.973083,293.947754 
	C377.763489,293.884888 380.293030,293.748413 380.542145,294.436951 
	C381.058807,295.865051 380.679840,297.875244 380.009003,299.344757 
	C379.749390,299.913574 376.706146,299.985168 376.627106,299.738983 
	C376.065063,297.987610 375.942291,296.095215 375.973083,293.947754 
z"/>
</svg>